<svg xmlns="http://www.w3.org/2000/svg" viewBox="0 0 1200 720">
  <rect width="1200" height="720" fill="#0e1727"/><rect x="48" y="48" width="1104" height="624" rx="22" fill="#111d31" stroke="#334d6c"/><text x="88" y="104" fill="#fff" font-family="Arial" font-size="26" font-weight="700">Observability signals</text><text x="930" y="104" fill="#7ee2a8" font-family="Arial" font-size="14">conceito visual</text><g fill="#1a2a40" stroke="#334d6c"><rect x="88" y="150" width="224" height="112" rx="14"/><rect x="338" y="150" width="224" height="112" rx="14"/><rect x="588" y="150" width="224" height="112" rx="14"/><rect x="838" y="150" width="224" height="112" rx="14"/></g><g fill="#9db0c7" font-family="Arial" font-size="15"><text x="116" y="190">CPU</text><text x="366" y="190">Memory</text><text x="616" y="190">Latency</text><text x="866" y="190">Errors</text></g><g fill="#fff" font-family="Arial" font-size="28" font-weight="700"><text x="116" y="235">42%</text><text x="366" y="235">68%</text><text x="616" y="235">124ms</text><text x="866" y="235">0.8%</text></g><rect x="88" y="306" width="640" height="238" rx="14" fill="#16263c" stroke="#334d6c"/><text x="120" y="348" fill="#9db0c7" font-family="Arial" font-size="17">Tendência temporal</text><path d="M120 476 190 442 260 466 330 402 400 428 470 370 540 402 610 344 690 372" fill="none" stroke="#7ee2a8" stroke-width="5"/><path d="M120 500h570" stroke="#334d6c" stroke-width="2"/><rect x="762" y="306" width="300" height="238" rx="14" fill="#16263c" stroke="#334d6c"/><text x="794" y="348" fill="#9db0c7" font-family="Arial" font-size="17">Status geral</text><circle cx="826" cy="414" r="12" fill="#7ee2a8"/><text x="854" y="422" fill="#fff" font-family="Arial" font-size="19">Operação estável</text><text x="88" y="620" fill="#6f89a6" font-family="Arial" font-size="14">CONCEITO VISUAL · métricas e saúde</text>
</svg>
